<svg xmlns="http://www.w3.org/2000/svg" version="1.1" xmlns:xlink="http://www.w3.org/1999/xlink" xmlns:svgjs="http://svgjs.dev/svgjs" width="1500" height="738" viewBox="0 0 1500 738"><g transform="matrix(1,0,0,1,-0.9090909090909918,-0.3510289846371393)"><svg viewBox="0 0 396 195" data-background-color="#ede1d1" preserveAspectRatio="xMidYMid meet" height="738" width="1500" xmlns="http://www.w3.org/2000/svg" xmlns:xlink="http://www.w3.org/1999/xlink"><g id="tight-bounds" transform="matrix(1,0,0,1,0.2400000000000091,0.0927515609813554)"><svg viewBox="0 0 395.52 194.8144968780373" height="194.8144968780373" width="395.52"><g><svg viewBox="0 0 395.52 194.8144968780373" height="194.8144968780373" width="395.52"><g transform="matrix(1,0,0,1,0,143.77675450207008)"><svg viewBox="0 0 395.52 51.03774237596722" height="51.03774237596722" width="395.52"><g id="textblocktransform"><svg viewBox="0 0 395.52 51.03774237596722" height="51.03774237596722" width="395.52" id="textblock"><g><svg viewBox="0 0 395.52 51.03774237596722" height="51.03774237596722" width="395.52"><g transform="matrix(1,0,0,1,0,0)"><svg width="395.52" viewBox="2.35 -22.4 219.67000000000002 28.349999999999998" height="51.03774237596722" data-palette-color="#6a704c"><path d="M5.9-19.1L5.9-19.1 5.9-4.5Q5.9-1.85 8.9-1.85L8.9-1.85 12.4-1.85Q15.3-1.85 15.3-4.5L15.3-4.5 15.35-19.1Q15.35-21.7 17.1-21.7L17.1-21.7Q18.85-21.7 18.85-19.25L18.85-19.25 18.85-3.6Q18.85 0 14.7 0L14.7 0 6.45 0Q2.35 0 2.35-3.55L2.35-3.55 2.35-19.25Q2.35-21.7 4.15-21.7L4.15-21.7Q5.9-21.7 5.9-19.1ZM31.7-13.85L31.7-13.85 30.15-13.85Q27.4-13.85 27.4-11.25L27.4-11.25 27.4-2.4Q27.4 0.2 25.65 0.2L25.65 0.2Q23.75 0.2 23.75-2.1L23.75-2.1 23.75-12.15Q23.75-15.6 27.8-15.6L27.8-15.6 31.75-15.6Q33.65-15.6 33.65-14.7L33.65-14.7Q33.65-13.85 31.7-13.85ZM42.85-15.6L42.85-15.6 44.45-15.6Q46.3-15.6 47.27-14.7 48.25-13.8 48.25-12.2L48.25-12.2 48.25-3.45Q48.25-1.6 47.25-0.78 46.25 0.05 44.35 0.05L44.35 0.05 40.2 0.05Q36.25 0.05 36.25-3.5L36.25-3.5 36.25-19.65Q36.25-22.05 38.15-22.05L38.15-22.05Q39.9-22.05 39.9-19.45L39.9-19.45 39.95-17.7Q39.95-15.6 42.85-15.6ZM44.65-4.75L44.65-4.75 44.65-10.8Q44.65-13.85 42.55-13.85L42.55-13.85 41.9-13.85Q39.95-13.85 39.95-10.55L39.95-10.55 39.9-4.7Q39.9-1.65 41.95-1.65L41.95-1.65 42.65-1.65Q44.65-1.65 44.65-4.75ZM59.64-16.55L59.64-16.55 55.39-16.55Q53.49-16.55 53.49-17.45L53.49-17.45Q53.49-18.3 55.29-18.3L55.29-18.3 61.24-18.3Q64.94-18.3 64.94-14.5L64.94-14.5 64.94-3.6Q64.94 0 61.24 0L61.24 0 57.04 0Q52.99 0 52.99-2.95L52.99-2.95 52.99-9.45Q52.99-10.7 53.94-11.48 54.89-12.25 56.89-12.25L56.89-12.25 59.54-12.25Q61.34-12.25 61.34-14.05L61.34-14.05 61.34-14.55Q61.34-16.55 59.64-16.55ZM56.54-8.1L56.54-8.1 56.54-4.3Q56.54-1.7 58.99-1.7L58.99-1.7Q61.34-1.7 61.34-4.3L61.34-4.3 61.34-8.1Q61.34-10.55 58.99-10.55L58.99-10.55Q56.54-10.55 56.54-8.1ZM78.04-2.45L78.04-11Q78.04-13.8 75.94-13.8L75.94-13.8 75.29-13.8Q73.29-13.8 73.29-10.8L73.29-10.8 73.29-2.45Q73.29 0.2 71.54 0.2L71.54 0.2Q69.64 0.2 69.64-2.1L69.64-2.1 69.64-12.1Q69.64-13.7 70.62-14.65 71.59-15.6 73.59-15.6L73.59-15.6 77.84-15.6Q79.69-15.6 80.67-14.68 81.64-13.75 81.64-12.15L81.64-12.15 81.64-2.2Q81.64 0.2 79.79 0.2L79.79 0.2Q78.04 0.2 78.04-2.45L78.04-2.45ZM104.24-1.85L104.24-1.85 112.44-1.85Q114.04-1.85 114.04-0.9L114.04-0.9Q114.04 0 112.49 0L112.49 0 101.64 0Q97.59 0 97.59-3.3L97.59-3.3 97.59-18.05Q97.59-21.45 101.64-21.45L101.64-21.45 112.49-21.45Q114.04-21.45 114.04-20.5L114.04-20.5Q114.04-19.5 112.44-19.5L112.44-19.5 104.24-19.5Q101.09-19.5 101.09-16.9L101.09-16.9 101.09-14.75Q101.09-12.1 104.14-12.1L104.14-12.1 112.39-12.1Q114.04-12.1 114.04-11.25L114.04-11.25Q114.04-10.2 112.44-10.2L112.44-10.2 104.14-10.2Q101.09-10.2 101.09-7.55L101.09-7.55 101.09-4.35Q101.09-1.85 104.24-1.85ZM119.48 0.25L119.48 0.25Q117.68 0.25 117.68-2.15L117.68-2.15 117.68-20.1Q117.68-22.4 119.48-22.4L119.48-22.4Q121.23-22.4 121.23-20.1L121.23-20.1 121.23-2.15Q121.23 0.25 119.48 0.25ZM131.58-1.7L131.58-1.7 136.63-1.7Q138.53-1.7 138.53-0.8L138.53-0.8Q138.53 0 136.73 0L136.73 0 130.48 0Q126.58 0 126.58-3.65L126.58-3.65 126.58-14.7Q126.58-18.3 130.58-18.3L130.58-18.3 134.73-18.3Q136.58-18.3 137.56-17.53 138.53-16.75 138.53-15.3L138.53-15.3 138.53-9.55Q138.53-7.7 137.56-6.9 136.58-6.1 134.73-6.1L134.73-6.1 131.68-6.1Q130.18-6.1 130.18-3.85L130.18-3.85Q130.18-1.7 131.58-1.7ZM130.18-14.1L130.18-14.1 130.18-10.35Q130.18-7.85 132.63-7.85L132.63-7.85Q134.93-7.85 134.93-10.35L134.93-10.35 134.93-14.1Q134.93-16.6 132.63-16.6L132.63-16.6Q130.18-16.6 130.18-14.1ZM144.93 4.25L149.88 4.25Q151.68 4.25 151.68 2.85L151.68 2.85 151.68 1.55Q151.68 0 149.83 0L149.83 0 147.23 0Q145.23 0 144.28-0.78 143.33-1.55 143.33-3.35L143.33-3.35 143.33-12.2Q143.33-13.8 144.28-14.7 145.23-15.6 147.23-15.6L147.23-15.6 151.48-15.6Q153.33-15.6 154.3-14.7 155.28-13.8 155.28-12.2L155.28-12.2 155.28 2.55Q155.28 4.35 154.3 5.15 153.33 5.95 151.53 5.95L151.53 5.95 144.88 5.95Q143.33 5.95 143.33 5.15L143.33 5.15Q143.33 4.25 144.93 4.25L144.93 4.25ZM151.68-4.8L151.68-4.8 151.68-10.85Q151.68-13.85 149.58-13.85L149.58-13.85 148.93-13.85Q146.98-13.85 146.98-10.65L146.98-10.65 146.98-4.75Q146.98-1.7 148.98-1.7L148.98-1.7 149.73-1.7Q151.68-1.7 151.68-4.8ZM166.63-16.55L166.63-16.55 162.38-16.55Q160.48-16.55 160.48-17.45L160.48-17.45Q160.48-18.3 162.28-18.3L162.28-18.3 168.23-18.3Q171.93-18.3 171.93-14.5L171.93-14.5 171.93-3.6Q171.93 0 168.23 0L168.23 0 164.03 0Q159.98 0 159.98-2.95L159.98-2.95 159.98-9.45Q159.98-10.7 160.93-11.48 161.88-12.25 163.88-12.25L163.88-12.25 166.53-12.25Q168.33-12.25 168.33-14.05L168.33-14.05 168.33-14.55Q168.33-16.55 166.63-16.55ZM163.53-8.1L163.53-8.1 163.53-4.3Q163.53-1.7 165.98-1.7L165.98-1.7Q168.33-1.7 168.33-4.3L168.33-4.3 168.33-8.1Q168.33-10.55 165.98-10.55L165.98-10.55Q163.53-10.55 163.53-8.1ZM185.02-2.45L185.02-11Q185.02-13.8 182.92-13.8L182.92-13.8 182.27-13.8Q180.27-13.8 180.27-10.8L180.27-10.8 180.27-2.45Q180.27 0.2 178.52 0.2L178.52 0.2Q176.62 0.2 176.62-2.1L176.62-2.1 176.62-12.1Q176.62-13.7 177.6-14.65 178.57-15.6 180.57-15.6L180.57-15.6 184.82-15.6Q186.67-15.6 187.65-14.68 188.62-13.75 188.62-12.15L188.62-12.15 188.62-2.2Q188.62 0.2 186.77 0.2L186.77 0.2Q185.02 0.2 185.02-2.45L185.02-2.45ZM199.82-13.85L199.82-13.85Q198.27-13.85 197.62-12.98 196.97-12.1 196.97-10.4L196.97-10.4 196.97-4.75Q196.97-1.7 199.72-1.7L199.72-1.7Q200.92-1.7 201.27-2.08 201.62-2.45 201.75-2.93 201.87-3.4 202.15-3.75 202.42-4.1 203.47-4.1L203.47-4.1Q205.27-4.1 205.27-1.9L205.27-1.9Q205.27-0.85 204.32-0.43 203.37 0 201.47 0L201.47 0 197.12 0Q193.32 0 193.32-3.45L193.32-3.45 193.32-12.2Q193.42-15.6 197.27-15.6L197.27-15.6 201.47-15.6Q203.37-15.6 204.32-15.08 205.27-14.55 205.27-13.8L205.27-13.8Q205.27-11.7 203.47-11.7L203.47-11.7Q202.37-11.7 202.07-12.03 201.77-12.35 201.59-12.78 201.42-13.2 201.15-13.53 200.87-13.85 199.82-13.85ZM215.07-1.7L215.07-1.7 220.12-1.7Q222.02-1.7 222.02-0.8L222.02-0.8Q222.02 0 220.22 0L220.22 0 213.97 0Q210.07 0 210.07-3.65L210.07-3.65 210.07-14.7Q210.07-18.3 214.07-18.3L214.07-18.3 218.22-18.3Q220.07-18.3 221.04-17.53 222.02-16.75 222.02-15.3L222.02-15.3 222.02-9.55Q222.02-7.7 221.04-6.9 220.07-6.1 218.22-6.1L218.22-6.1 215.17-6.1Q213.67-6.1 213.67-3.85L213.67-3.85Q213.67-1.7 215.07-1.7ZM213.67-14.1L213.67-14.1 213.67-10.35Q213.67-7.85 216.12-7.85L216.12-7.85Q218.42-7.85 218.42-10.35L218.42-10.35 218.42-14.1Q218.42-16.6 216.12-16.6L216.12-16.6Q213.67-16.6 213.67-14.1Z" opacity="1" transform="matrix(1,0,0,1,0,0)" fill="#6a704c" class="wordmark-text-0" data-fill-palette-color="primary" id="text-0"></path></svg></g></svg></g></svg></g></svg></g><g transform="matrix(1,0,0,1,137.9204088181138,0)"><svg viewBox="0 0 119.6791823637724 119.6791823637724" height="119.6791823637724" width="119.6791823637724"><g><svg></svg></g><g id="icon-0"><svg viewBox="0 0 119.6791823637724 119.6791823637724" height="119.6791823637724" width="119.6791823637724"><g><path d="M0 59.84c0-33.048 26.791-59.84 59.84-59.84 33.048 0 59.84 26.791 59.839 59.84 0 33.048-26.791 59.84-59.839 59.839-33.048 0-59.84-26.791-59.84-59.839zM59.84 115.077c30.507 0 55.237-24.73 55.237-55.237 0-30.507-24.73-55.237-55.237-55.237-30.507 0-55.237 24.73-55.237 55.237 0 30.507 24.73 55.237 55.237 55.237z" data-fill-palette-color="accent" fill="#412e27" stroke="transparent"></path><ellipse rx="59.24119527006734" ry="59.24119527006734" cx="59.8395911818862" cy="59.8395911818862" fill="#412e27" stroke="transparent" stroke-width="0" fill-opacity="1" data-fill-palette-color="accent"></ellipse></g><g transform="matrix(1,0,0,1,31.543362891190817,29.423119407078605)"><svg viewBox="0 0 56.59245658139076 60.83294354961519" height="60.83294354961519" width="56.59245658139076"><g><svg xmlns="http://www.w3.org/2000/svg" xmlns:xlink="http://www.w3.org/1999/xlink" version="1.1" x="0" y="0" viewBox="8.91142102963753 4.989 82.17835522781238 88.336" enable-background="new 0 0 100 100" xml:space="preserve" height="60.83294354961519" width="56.59245658139076" class="icon-dxe-0" data-fill-palette-color="quaternary" id="dxe-0"><path d="M90.83 52.403C90.792 52.347 86.992 46.764 82.524 41.257 74.09 30.86 70.626 29.658 68.754 29.658H62.654C62.604 29.658 62.556 29.668 62.508 29.673L52.311 23.348V20.052C55.68 19.258 58.198 16.234 58.198 12.626 58.198 8.415 54.772 4.989 50.561 4.989S42.924 8.415 42.924 12.626A1.75 1.75 0 0 0 46.424 12.626 4.14 4.14 0 0 1 50.561 8.489C52.842 8.489 54.698 10.345 54.698 12.626S52.843 16.763 50.561 16.763A1.75 1.75 0 0 0 48.811 18.513V23.351L38.64 29.659H31.42C25.593 29.659 12.927 47.054 9.184 52.385A1.5 1.5 0 0 0 9.464 54.41L23.544 65.888A1.497 1.497 0 0 0 25.655 65.674L27.089 63.915V91.825A1.5 1.5 0 0 0 28.589 93.325H71.756A1.5 1.5 0 0 0 73.256 91.825V64.332L74.35 65.673A1.5 1.5 0 0 0 76.46 65.887L90.539 54.408A1.5 1.5 0 0 0 90.83 52.403M50.562 26.382L61.06 32.893C60.52 36.367 57.493 39.038 53.837 39.038H48.003C44.216 39.038 41.097 36.147 40.752 32.467z" fill="#ede1d1" data-fill-palette-color="quaternary"></path></svg></g></svg></g></svg></g></svg></g><g></g></svg></g><defs></defs></svg><rect width="395.52" height="194.8144968780373" fill="none" stroke="none" visibility="hidden"></rect></g></svg></g></svg>